Genre:Crime | Thriller | Western
Language:English
IMDb:http://www.imdb.com/title/tt1530983/
Source:720p.BluRay.x264.REFiNED

General
Complete name :Red.Hill.LIMITED.720p.BRRip.H264.Feel-Free
Format : MPEG-4
Format profile : Base Media / Version 2
Codec ID : mp42
File size : 1.41 GiB
Duration : 1h 37mn
Overall bit rate : 2 080 Kbps
Video #1
Codec ID : avc1
Codec ID/Info : Advanced Video Coding
Duration : 1h 37mn
Bit rate mode : Variable
Bit rate : 1 599 Kbps
Width : 1 280 pixels
Height : 536 pixels
Display aspect ratio : 2.35:1
Frame rate mode : Constant
Frame rate : 23.976 fps
Resolution : 24 bits
Colorimetry : 4:2:0
Scan type : Progressive
Bits/(Pixel*Frame) : 0.097
Stream size : 1.08 GiB (77%)
Audio #2
ID : 2
Format : AAC
Format/Info : Advanced Audio Codec
Format version : Version 4
Format profile : LC
Format settings, SBR : No
Codec ID : 40
Duration : 1h 37mn
Bit rate mode : Constant
Bit rate : 477 Kbps
Nominal bit rate : 480 Kbps
Channel(s) : 6 channels
Channel positions : Front: L C R, Rear: L R, LFE
Sampling rate : 48.0 KHz
Resolution : 16 bits
Stream size : 331 MiB (23%)

Plot:
A young police officer must survive his first day's duty in a small country town


screens
 
http://rapidhdd.com/images/355756vlcsnap-2010-11-16-13h42m33s184.png 
http://www.rapidhdd.com/images/434091vlcsnap-2010-11-16-13h45m04s134.png 
http://www.rapidhdd.com/images/967070vlcsnap-2010-11-16-13h43m21s158.png 
http://www.rapidhdd.com/images/590097vlcsnap-2010-11-16-13h42m59s183.png 
http://www.rapidhdd.com/images/814757vlcsnap-2010-11-16-13h45m46s59.png